<svg width="73" height="73" viewBox="0 0 73 73" fill="none" xmlns="http://www.w3.org/2000/svg">
<path d="M34.5888 7.4626C36.0788 6.8458 37.7526 6.8458 39.2426 7.4626L56.0934 14.4432C56.8317 14.7486 57.5026 15.1964 58.0678 15.7611C58.633 16.3258 59.0815 16.9963 59.3875 17.7343L66.3682 34.5851C66.674 35.3233 66.8314 36.1145 66.8314 36.9135C66.8314 37.7126 66.674 38.5038 66.3682 39.2419L59.3875 56.0928C59.0821 56.8311 58.6343 57.502 58.0696 58.0672C57.505 58.6324 56.8345 59.0808 56.0964 59.3869L39.2456 66.3675C38.5074 66.6733 37.7162 66.8308 36.9172 66.8308C36.1182 66.8308 35.327 66.6733 34.5888 66.3675L17.738 59.3869C16.9997 59.0815 16.3288 58.6337 15.7636 58.069C15.1984 57.5043 14.7499 56.8338 14.4439 56.0958L7.46323 39.245C7.15741 38.5068 7 37.7156 7 36.9166C7 36.1176 7.15741 35.3264 7.46323 34.5882L14.4439 17.7374C14.7492 16.9991 15.1971 16.3281 15.7617 15.7629C16.3264 15.1977 16.9969 14.7493 17.7349 14.4432L34.5858 7.4626H34.5888Z" stroke="#3B9A88" stroke-width="2"/>
<path d="M34.0623 26H41.0007V29.2913H34.1685L33.4987 29.3327C33.1343 29.3552 32.7939 29.522 32.5529 29.7963C32.359 30.017 32.2272 30.2852 32.1711 30.5736L32.1055 30.9104C32.0178 31.3606 31.9776 31.8188 31.9856 32.2774L32.0698 37.1342C32.0764 37.5124 32.1792 37.8827 32.3685 38.2102L32.4896 38.4196C32.5681 38.5554 32.6905 38.6604 32.8366 38.7173C33.2723 38.8868 33.7357 38.9738 34.2032 38.9738H37.9917V42.2269H33.7494C33.4423 42.2269 33.1386 42.2921 32.8586 42.4182L32.6724 42.5576C32.492 42.6926 32.3438 42.866 32.2385 43.0652C32.1573 43.2189 32.1103 43.3883 32.1009 43.5618L32.0798 43.9491L32.0949 44.1607C32.1084 44.3501 32.1509 44.5364 32.2209 44.713C32.2911 44.8901 32.4016 45.0484 32.5437 45.1754L32.7723 45.3795C33.0103 45.592 33.3182 45.7095 33.6373 45.7095H37.1775H39.1784C39.5125 45.7095 39.8392 45.6103 40.1169 45.4244C40.3264 45.2842 40.5059 45.1036 40.6449 44.8933L40.68 44.8402C40.8661 44.5585 40.9653 44.2283 40.9653 43.8907V43.6046V40.4281V37.7042C40.9653 37.3052 40.8786 36.911 40.7111 36.5489C40.6227 36.3578 40.4828 36.1953 40.3069 36.0796L40.2598 36.0486C39.9349 35.8348 39.5544 35.7208 39.1655 35.7208H35.0181L34.9119 32.5061H38.9121H39.6799C40.0392 32.5061 40.3965 32.56 40.7398 32.666C41.0539 32.763 41.3547 32.9029 41.6315 33.0802C41.9869 33.3079 42.3099 33.5859 42.5876 33.9038L42.9699 34.3414C43.2363 34.6463 43.447 34.9956 43.5926 35.3733L43.7266 35.7208C43.891 36.3305 43.9744 36.9592 43.9744 37.5907V42.1886H41.7441V43.5512C41.7441 44.2135 41.5734 44.8645 41.2485 45.4416L41.0858 45.6427C40.8652 45.9152 40.6031 46.1511 40.3091 46.3418C40.1353 46.4546 39.938 46.526 39.7323 46.5508L39.7263 46.5515H39.3723L36.9651 46.5897H34.5225H34.3867C33.7963 46.5897 33.2093 46.4994 32.6462 46.3218L32.1152 45.9009L31.7612 45.5182L31.4426 44.9058L31.3661 44.6246C31.2994 44.3794 31.2656 44.1265 31.2656 43.8724C31.2656 43.5689 31.321 43.2678 31.4291 42.9842L31.5134 42.7627L31.5509 42.7042C31.7379 42.412 31.9505 42.1371 32.186 41.8824L31.1948 41.4232C30.6334 41.0186 30.1532 40.5119 29.7792 39.9297L29.4602 39.4331L29.177 38.6294L29.0708 37.864L29 33.5011V30.8965C29 30.6182 29.0317 30.3408 29.0944 30.0697L29.173 29.7298C29.2696 29.3119 29.4245 28.9091 29.6326 28.5341C29.8471 28.1477 30.1075 27.7879 30.4075 27.4635C30.6943 27.1534 31.0316 26.8942 31.4049 26.6969L31.7069 26.5373C32.1879 26.2831 32.7093 26.1142 33.248 26.0383L34.0623 26Z" fill="white"/>
</svg>
